HIERARCHY
ROOT Hips
{
	OFFSET 0.00000 0.00000 0.00000
	CHANNELS 6 Xposition Yposition Zposition Zrotation Yrotation Xrotation 
	JOINT LHipJoint
	{
		OFFSET 0 0 0
		CHANNELS 3 Zrotation Yrotation Xrotation
		JOINT LeftHip
		{
			OFFSET 1.55020 -1.87941 0.79896
			CHANNELS 3 Zrotation Yrotation Xrotation
			JOINT LeftKnee
			{
				OFFSET 2.65269 -7.28822 0.00000
				CHANNELS 3 Zrotation Yrotation Xrotation
				JOINT LeftAnkle
				{
					OFFSET 2.61200 -7.17641 0.00000
					CHANNELS 3 Zrotation Yrotation Xrotation
					JOINT LeftToe
					{
						OFFSET 0.09338 -0.25656 1.92461
						CHANNELS 3 Zrotation Yrotation Xrotation
						End Site
						{
							OFFSET 0.00000 -0.00000 0.98480
						}
					}
				}
			}
		}
	}
	JOINT RHipJoint
	{
		OFFSET 0 0 0
		CHANNELS 3 Zrotation Yrotation Xrotation
		JOINT RightHip
		{
			OFFSET -1.56866 -1.87941 0.79895
			CHANNELS 3 Zrotation Yrotation Xrotation
			JOINT RightKnee
			{
				OFFSET -2.60199 -7.14892 0.00000
				CHANNELS 3 Zrotation Yrotation Xrotation
				JOINT RightAnkle
				{
					OFFSET -2.62841 -7.22151 0.00000
					CHANNELS 3 Zrotation Yrotation Xrotation
					JOINT RightToe
					{
						OFFSET -0.19532 -0.53663 1.93132
						CHANNELS 3 Zrotation Yrotation Xrotation
						End Site
						{
							OFFSET -0.00000 -0.00000 1.00896
						}
					}
				}
			}
		}
	}
	JOINT lowerback
	{
		OFFSET 0 0 0
		CHANNELS 3 Zrotation Yrotation Xrotation
		JOINT Chest
		{
			OFFSET 0.06381 2.07806 -0.22112
			CHANNELS 3 Zrotation Yrotation Xrotation
			JOINT Chest2
			{
				OFFSET -0.02881 2.08890 0.01825
				CHANNELS 3 Zrotation Yrotation Xrotation
				JOINT lowerneck
				{
					OFFSET 0 0 0
					CHANNELS 3 Zrotation Yrotation Xrotation
					JOINT Neck
					{
						OFFSET 0.02418 1.74325 -0.02023
						CHANNELS 3 Zrotation Yrotation Xrotation
						JOINT Head
						{
							OFFSET -0.01704 1.71677 0.04090
							CHANNELS 3 Zrotation Yrotation Xrotation
							End Site
							{
								OFFSET -0.00946 1.78238 0.01684
							}
						}
					}
				}
				JOINT LeftCollar
				{
					OFFSET 0 0 0
					CHANNELS 3 Zrotation Yrotation Xrotation
					JOINT LeftShoulder
					{
						OFFSET 3.39783 1.34157 0.16610
CHANNELS 3 Zrotation Xrotation Yrotation
						JOINT LeftElbow
						{
OFFSET 0 -5.152180 0.000000
CHANNELS 3 Zrotation Xrotation Yrotation
							JOINT LeftWrist
							{
OFFSET 0 -3.494590 0.000000
CHANNELS 3 Zrotation Xrotation Yrotation
								JOINT lhand
								{
									OFFSET 0 0 0
CHANNELS 3 Zrotation Xrotation Yrotation
									JOINT LFingers
									{
OFFSET 0 -0.512470 0.000000
CHANNELS 3 Zrotation Xrotation Yrotation
										End Site
										{
OFFSET 0 -0.413160 0.000000
										}
									}
								}
								JOINT LThumb
								{
OFFSET 0 0.000000 0.000000
CHANNELS 3 Zrotation Xrotation Yrotation
									End Site
									{
OFFSET 0 -0.419470 0.419470
									}
								}
							}
						}
					}
				}
				JOINT RightCollar
				{
					OFFSET 0 0 0
					CHANNELS 3 Zrotation Yrotation Xrotation
					JOINT RightShoulder
					{
						OFFSET -3.26224 1.05509 0.01188
CHANNELS 3 Zrotation Xrotation Yrotation
						JOINT RightElbow
						{
OFFSET 0 -5.443440 0.000000
CHANNELS 3 Zrotation Xrotation Yrotation
							JOINT RightWrist
							{
OFFSET 0 -3.584030 0.000000
CHANNELS 3 Zrotation Xrotation Yrotation
								JOINT rhand
								{
									OFFSET 0 0 0
CHANNELS 3 Zrotation Xrotation Yrotation
									JOINT RFingers
									{
OFFSET 0 -0.342490 0.000000
CHANNELS 3 Zrotation Xrotation Yrotation
										End Site
										{
OFFSET 0 -0.276120 0.000000
										}
									}
								}
								JOINT RThumb
								{
OFFSET 0 0.000000 0.000000
CHANNELS 3 Zrotation Xrotation Yrotation
									End Site
									{
OFFSET 0 -0.280340 0.280340
									}
								}
							}
						}
					}
				}
			}
		}
	}
}
MOTION
Frames: 12
Frame Time: 0.008333333333333333
-14.353800 17.560700 1.594200 177.501000 -86.805300 -176.855000 0.000000 0.000000 0.000000 -18.220000 -1.297800 -10.647800 3.937300 12.076500 36.003000 1.294800 -9.767600 -20.470700 1.070000 -6.575800 -18.464500 0.000000 0.000000 0.000000 16.762600 8.987200 -10.315200 -4.066900 -12.248900 36.618100 -1.722300 3.725800 -23.903100 -1.131000 6.754600 -18.990400 5.306500 0.425500 6.739100 1.194600 1.180200 -5.295400 -1.872600 0.238000 -9.349200 -6.818300 -9.607900 -3.293400 -1.689800 -12.433400 9.582700 -0.001400 -6.509800 4.080100 0.000000 0.000000 0.000000 66.043300 22.235600 29.671200 134.917400 -50.808900 97.697200 18.108900 1.025900 -18.111300 0.000000 0.000000 0.000000 -7.125000 0.000000 0.000000 -9.716000 48.724000 0.900200 0.000000 0.000000 0.000000 -15.592400 10.002100 -39.798100 -24.318200 -35.498900 -7.890500 -58.559500 27.112800 50.782600 0.000000 0.000000 0.000000 7.125000 0.000000 -0.000000 175.820600 6.972500 -3.651200
-14.310647 17.560104 1.548695 159.159182 -88.705182 -158.889130 0.000000 0.000000 0.000000 -18.322925 -2.174249 -10.336191 3.925268 12.060275 35.945438 1.189616 -10.129357 -19.698673 1.129791 -6.751051 -18.979774 0.000000 0.000000 0.000000 16.704641 7.882575 -10.044903 -4.068868 -12.251475 36.627491 -1.735703 2.837459 -24.172202 -1.105031 6.678291 -18.766098 5.100920 0.117450 6.922913 0.787365 0.727947 -5.001967 -2.129171 0.033108 -9.163436 -10.213082 -12.294831 -0.890495 0.784302 -16.316089 8.280243 1.254416 -8.418684 3.884460 0.000000 0.000000 0.000000 58.428622 26.124873 31.531783 130.642693 -52.727341 94.336710 17.987710 0.809060 -18.777674 0.000000 0.000000 0.000000 -7.125000 0.000000 0.000000 -10.039298 49.385675 1.094616 0.000000 0.000000 0.000000 -17.756256 8.942234 -32.669487 -26.447963 -37.643031 -9.161705 -58.899299 29.379631 51.867226 0.000000 0.000000 0.000000 7.125000 0.000000 0.000000 176.310511 7.944946 -3.150854
-14.277493 17.558135 1.505939 53.593523 -89.444851 -53.637821 0.000000 0.000000 0.000000 -18.122827 -2.737720 -10.139108 3.929109 12.065476 35.963866 1.077479 -10.766571 -18.906649 1.085263 -6.620982 -18.597213 0.000000 0.000000 0.000000 16.861237 6.743787 -9.860986 -4.061495 -12.241728 36.592658 -1.749237 2.420408 -24.362053 -1.077505 6.598021 -18.529820 5.188822 -0.223311 6.877850 0.449547 0.251509 -4.783614 -2.470022 -0.202650 -8.933449 -12.059877 -13.897851 1.091478 1.678688 -18.734853 7.874978 1.792708 -9.648345 3.839210 0.000000 0.000000 0.000000 50.683438 28.549089 33.166777 125.122535 -54.782080 89.883926 18.600628 2.546576 -19.530763 0.000000 0.000000 0.000000 -7.125000 0.000000 0.000000 -9.693146 50.249264 1.264532 0.000000 0.000000 0.000000 -19.741663 7.498275 -25.860453 -29.108058 -40.116041 -10.830472 -58.632158 30.223578 51.574393 0.000000 0.000000 0.000000 7.125000 0.000000 0.000000 176.223938 7.582068 -3.252055
-14.239688 17.557547 1.462295 11.300173 -88.783402 -11.528369 0.000000 0.000000 0.000000 -17.719679 -3.213091 -10.112064 3.958355 12.104784 36.103753 1.025794 -10.962031 -18.525022 1.125933 -6.739972 -18.947268 0.000000 0.000000 0.000000 17.167870 5.731083 -9.965865 -4.036893 -12.209291 36.476440 -1.738926 2.521168 -24.264290 -1.105717 6.681209 -18.774294 5.329658 -0.399323 6.704136 0.173264 -0.003235 -4.552250 -2.807595 -0.329055 -8.602239 -12.803461 -14.611264 2.429497 2.366783 -19.938903 8.123563 1.893642 -10.254593 3.551219 0.000000 0.000000 0.000000 43.391679 30.382593 34.197013 119.507297 -56.431882 85.246915 16.822161 5.205232 -18.366670 0.000000 0.000000 0.000000 -7.125000 0.000000 0.000000 -11.017831 48.793659 1.040840 0.000000 0.000000 0.000000 -21.258855 5.643143 -19.733627 -32.181405 -42.687177 -12.865176 -62.104888 34.914563 50.532335 0.000000 0.000000 0.000000 7.125000 0.000000 0.000000 174.755922 9.004161 -4.363270
-14.200508 17.556974 1.413616 5.311845 -88.467316 -5.846330 0.000000 0.000000 0.000000 -17.468767 -3.588663 -9.892209 3.978905 12.132209 36.201311 1.012222 -10.933519 -18.408641 1.089077 -6.632402 -18.630628 0.000000 0.000000 0.000000 17.388901 5.100256 -9.912352 -4.008169 -12.171255 36.340400 -1.746584 2.943674 -24.228471 -1.009449 6.392726 -17.928210 5.084608 -0.533444 6.643150 -0.012165 -0.227230 -4.282773 -2.836876 -0.414281 -8.291042 -12.957649 -14.742639 3.212073 2.732454 -20.266455 8.284802 2.044269 -10.429280 3.555449 0.000000 0.000000 0.000000 36.716785 31.604695 35.033841 112.737203 -57.951639 79.555401 15.223572 6.095524 -15.401806 0.000000 0.000000 0.000000 -7.125000 0.000000 0.000000 -11.611157 45.587320 0.170758 0.000000 0.000000 0.000000 -22.733827 3.547223 -14.336677 -35.216910 -44.965309 -14.966789 -56.749223 31.899122 50.135194 0.000000 0.000000 0.000000 7.125000 0.000000 0.000000 175.995991 5.434957 -3.611291
-14.167963 17.554695 1.370694 -7.748024 -88.258380 6.956455 0.000000 0.000000 0.000000 -16.910480 -3.748165 -9.748168 3.999268 12.159495 36.298527 1.018276 -10.785798 -18.431033 1.219539 -6.997894 -19.711888 0.000000 0.000000 0.000000 17.873942 4.175885 -9.967072 -3.977062 -12.129790 36.192769 -1.774512 3.337687 -24.349574 -1.092935 6.642911 -18.661919 5.199370 -0.647082 6.719218 -0.078325 -0.369310 -4.096078 -2.952753 -0.483202 -8.148625 -12.939435 -14.771314 3.239178 2.900997 -20.339627 8.672133 2.067121 -10.472344 3.691914 0.000000 0.000000 0.000000 30.846908 32.088523 34.614523 106.013488 -58.998694 73.820640 16.394441 6.940979 -16.868051 0.000000 0.000000 0.000000 -7.125000 0.000000 0.000000 -10.955611 47.217446 0.606302 0.000000 0.000000 0.000000 -23.845692 2.063603 -8.612314 -39.572954 -47.803483 -18.125688 -55.509775 32.923578 50.410832 0.000000 0.000000 0.000000 7.125000 0.000000 0.000000 176.493376 4.927150 -3.198444
-14.140797 17.551728 1.332609 -5.205698 -88.476053 4.268962 0.000000 0.000000 0.000000 -16.919738 -3.741597 -9.709123 4.016574 12.182370 36.380257 1.067277 -10.228310 -18.735526 1.524276 -7.795687 -22.095169 0.000000 0.000000 0.000000 17.827351 3.661645 -10.041046 -3.944651 -12.086383 36.038251 -1.763947 3.825064 -24.184876 -1.097482 6.656907 -18.702977 4.856311 -0.642450 6.601736 -0.215928 -0.415549 -3.928653 -2.900476 -0.480579 -7.898373 -12.784294 -14.743987 3.102557 2.900918 -20.289250 8.857024 2.033487 -10.445692 3.751030 0.000000 0.000000 0.000000 25.938140 32.296674 34.541236 97.914129 -59.759045 66.848102 14.361920 6.684808 -14.283105 0.000000 0.000000 0.000000 -7.125000 0.000000 0.000000 -12.080736 44.362349 -0.194239 0.000000 0.000000 0.000000 -24.628848 0.850717 -3.168802 -44.673083 -50.605069 -21.986482 -53.977218 33.666026 49.210237 0.000000 0.000000 0.000000 7.125000 0.000000 0.000000 176.357716 3.120844 -3.445705
-14.120428 17.551978 1.301784 -28.228535 -88.766193 27.361783 0.000000 0.000000 0.000000 -16.310782 -3.823778 -9.793862 4.032232 12.203161 36.454467 1.055265 -10.456129 -18.674307 1.201193 -6.953327 -19.577287 0.000000 0.000000 0.000000 18.310865 3.312323 -10.249686 -3.890765 -12.013619 35.780151 -1.732051 4.580762 -23.838288 -1.095264 6.650634 -18.684345 5.179436 -0.680846 6.471304 -0.245020 -0.445871 -3.877122 -3.109774 -0.509473 -7.775677 -12.671235 -14.675048 2.563595 2.967950 -20.139454 9.201926 1.990140 -10.365328 3.926118 0.000000 0.000000 0.000000 21.950112 32.136024 35.226365 89.070201 -59.988448 59.194835 11.067364 9.772341 -15.848098 0.000000 0.000000 0.000000 -7.125000 0.000000 0.000000 -15.645107 45.539989 0.241443 0.000000 0.000000 0.000000 -24.972348 -0.345865 2.065095 -49.859894 -52.929794 -26.064746 -52.561167 35.076943 47.663833 0.000000 0.000000 0.000000 7.125000 0.000000 0.000000 176.069260 1.058814 -3.866466
-14.111104 17.558870 1.270372 -66.138835 -88.948397 65.468950 0.000000 0.000000 0.000000 -15.726210 -3.532546 -10.028009 4.032016 12.202876 36.453446 1.064330 -10.573530 -18.767504 1.124648 -6.735699 -18.934865 0.000000 0.000000 0.000000 18.720494 2.931244 -10.707672 -3.850594 -11.958824 35.586615 -1.693328 5.590846 -23.437623 -1.079980 6.605393 -18.551332 5.292946 -0.679620 6.277500 -0.264802 -0.445988 -4.024063 -3.194571 -0.522025 -7.823643 -12.868420 -14.507151 2.644543 3.418911 -19.971026 9.255685 2.155812 -10.278606 3.981892 0.000000 0.000000 0.000000 18.647185 32.093012 35.380796 82.949200 -59.810134 53.897813 11.894797 10.908362 -14.538909 0.000000 0.000000 0.000000 -7.125000 0.000000 0.000000 -14.361551 44.336799 -0.240488 0.000000 0.000000 0.000000 -24.968195 -1.052450 7.156089 -54.931158 -54.798326 -30.160251 -50.458534 35.797655 46.069536 0.000000 0.000000 0.000000 7.125000 0.000000 0.000000 3.945682 -1.746568 176.167287
-14.105257 17.571168 1.244198 -114.535122 -88.986754 114.026559 0.000000 0.000000 0.000000 -15.688810 -3.192314 -10.047977 3.979520 12.133060 36.204454 1.085760 -10.398550 -18.912022 1.019756 -6.423841 -18.019486 0.000000 0.000000 0.000000 18.688965 3.050563 -11.027111 -3.843167 -11.948769 35.550952 -1.663459 6.392985 -23.156656 -1.049742 6.515045 -18.286504 4.949941 -0.604907 5.994493 -0.312133 -0.399136 -4.026075 -3.058490 -0.478324 -7.650296 -12.550334 -14.374631 2.072617 3.040984 -19.686138 9.491399 1.979796 -10.135079 4.053699 0.000000 0.000000 0.000000 15.545875 31.958704 33.829891 78.250678 -59.450465 49.844957 17.224875 10.386136 -16.087992 0.000000 0.000000 0.000000 -7.125000 0.000000 0.000000 -9.939591 46.624898 0.176074 0.000000 0.000000 0.000000 -24.989655 -1.574053 12.164944 -60.180282 -56.351186 -34.492597 -50.112990 37.887316 45.392633 0.000000 0.000000 0.000000 7.125000 0.000000 0.000000 4.125124 -2.557505 176.052738
-14.095564 17.576624 1.225040 -144.505225 -88.641483 144.027093 0.000000 0.000000 0.000000 -15.790581 -2.965687 -9.933004 3.923956 12.058496 35.939266 1.121382 -10.051581 -19.146829 1.035886 -6.473394 -18.164299 0.000000 0.000000 0.000000 18.551906 3.073729 -11.269813 -3.856719 -11.967226 35.616124 -1.646951 7.095896 -23.001774 -0.994153 6.345698 -17.790813 4.663105 -0.642754 5.928191 -0.413374 -0.487489 -3.878046 -2.993667 -0.501054 -7.456554 -12.044152 -14.297616 1.372485 2.628475 -19.434200 9.291720 1.778628 -9.989058 3.993989 0.000000 0.000000 0.000000 13.322965 31.361517 33.700303 69.721822 -58.382689 42.534445 15.481950 10.768664 -10.714975 0.000000 0.000000 0.000000 -7.125000 0.000000 0.000000 -10.248222 40.873177 -1.053860 0.000000 0.000000 0.000000 -24.813545 -2.044873 17.079679 -65.915075 -57.687761 -39.304066 -49.475073 38.720157 45.426431 0.000000 0.000000 0.000000 7.125000 0.000000 0.000000 3.877065 -2.842439 176.311448
-14.080259 17.576976 1.213558 -153.924720 -88.239725 153.437287 0.000000 0.000000 0.000000 -15.801540 -2.903281 -9.803061 3.887757 12.009478 35.765636 1.149298 -9.777070 -19.334688 1.039558 -6.484488 -18.196736 0.000000 0.000000 0.000000 18.537576 3.115532 -11.470937 -3.885786 -12.006779 35.756024 -1.634876 7.518739 -22.902357 -0.995280 6.349084 -17.800669 4.452300 -0.844331 6.025527 -0.385902 -0.770401 -3.815008 -2.810179 -0.626613 -7.465571 -11.847501 -14.085394 1.279167 2.488836 -19.097508 8.730667 1.760535 -9.805296 3.779290 0.000000 0.000000 0.000000 11.287951 31.235167 32.156336 60.371590 -56.386484 34.655226 17.161616 12.487801 -10.159065 0.000000 0.000000 0.000000 -7.125000 0.000000 0.000000 -8.679818 40.452072 -0.983425 0.000000 0.000000 0.000000 -24.583710 -2.187199 22.397196 -71.145198 -58.608534 -43.747981 -46.760263 36.425824 43.448978 0.000000 0.000000 0.000000 7.125000 0.000000 0.000000 3.678396 -6.061710 176.723513
